/* XPM */
static char *_c6c802879f04324b82a86a380991231[] = {
/* columns rows colors chars-per-pixel */
"64 64 129 2 ",
"   c None",
".  c #4F3C1C",
"X  c #503C1C",
"o  c #4C3F23",
"O  c #523F21",
"+  c #1E6F3B",
"@  c #0C7D3F",
"#  c #14773D",
"$  c #107B3D",
"%  c #2B6438",
"&  c #246B39",
"*  c #316136",
"=  c #4D4D2C",
"-  c #554326",
";  c #594427",
":  c #574529",
">  c #584528",
",  c #54482F",
"<  c #5E4A2C",
"1  c #46522D",
"2  c #5F4D31",
"3  c #624C2E",
"4  c #66502F",
"5  c #634E32",
"6  c #655134",
"7  c #6A5232",
"8  c #6A593F",
"9  c #715636",
"0  c #755837",
"q  c #745939",
"w  c #795C3B",
"e  c #7F603D",
"r  c #74644E",
"t  c #7C6C56",
"y  c #7B6E59",
"u  c #9E1A36",
"i  c #B80E31",
"p  c #B71234",
"a  c #B91033",
"s  c #B81838",
"d  c #875830",
"f  c #82623E",
"g  c #AC6B36",
"h  c #A66B39",
"j  c #AD6E3A",
"k  c #AF713D",
"l  c #B3733E",
"z  c #BB733D",
"x  c #C1713C",
"c  c #B32442",
"v  c #AF354C",
"b  c #AC3B53",
"n  c #A94055",
"m  c #876641",
"M  c #8A6742",
"N  c #8B6944",
"B  c #936D47",
"V  c #946E48",
"C  c #967049",
"Z  c #9B734C",
"A  c #A0784F",
"S  c #B57540",
"D  c #B97741",
"F  c #B57A41",
"G  c #BC7941",
"H  c #B57A4A",
"J  c #A27751",
"K  c #A47951",
"L  c #AA7C53",
"P  c #A64F61",
"I  c #A65262",
"U  c #9F737A",
"Y  c #9F797E",
"T  c #A2636F",
"R  c #008542",
"E  c #AE8055",
"W  c #B28257",
"Q  c #B48459",
"!  c #BA865A",
"~  c #BD8A5E",
"^  c #928672",
"/  c #BF8C61",
"(  c #C18D5F",
")  c #C28D60",
"_  c #C59062",
"`  c #997E82",
"'  c #9C8487",
"]  c #958B8A",
"[  c #988D8D",
"{  c #9F9587",
"}  c #97918F",
"|  c #979291",
" . c #9A9191",
".. c #A3998A",
"X. c #A99F9F",
"o. c #AFAA9E",
"O. c #AEA6A6",
"+. c #B4ACA2",
"@. c #B8B1A7",
"#. c #B6B0B0",
"$. c #BDB7B7",
"%. c #BEB8B8",
"&. c #CEB099",
"*. c #D3B7A0",
"=. c #C6BFB9",
"-. c #DDCBBD",
";. c #C7C6C6",
":. c #CAC5C5",
">. c #CBC8C2",
",. c #CFCBCB",
"<. c #DDCEC4",
"1. c #D1CDC8",
"2. c #D5D3D3",
"3. c #D9D6D5",
"4. c #DFDCDC",
"5. c #E2D6CD",
"6. c #E2DAD2",
"7. c #E2DFDD",
"8. c #E4E5E4",
"9. c #E8E7E7",
"0. c #E6E8E6",
"q. c #E7E8E8",
"w. c #ECECEC",
"e. c #F0EFEF",
"r. c #EEEFF1",
"t. c #EFF1F2",
"y. c #F1F1F2",
"u. c #F2F4F8",
"i. c #F8F9F9",
/* pixels */
"                                                        k                                                                       ",
"                                          k k       k k k k       l       D                                                     ",
"                                            k D     k k k k k k k k k k       z                                                 ",
"                                k       k l k k k k k k k k k k k k k k k k k k l D k   h                                       ",
"                                k l k k k k k k k k k k k k k k k k k k k k k k S j S   S k k                                   ",
"                                k k k k k k k k k l k k k k k k k k k k k k k k j S h S j k k G                                 ",
"                              k k k k k k k k k k k k 5.w.w.w.w.w.w.w.w.w.&.k k S j k k k k k k k                               ",
"                            G k k k k k k k k k w.w.w.w.w.w.w.w.w.w.w.w.w.w.w.w.w.j k k k k k k k   k k   S                     ",
"                            k k k k k k k -.w.w.w.w.w.w.w.w.w.w.w.w.w.w.w.w.w.w.w.w.w.H l j l k k k k k k k                     ",
"                      k   k k k k k k k w.w.w.w.w.w.w.w.w.w.w.w.w.w.w.w.w.w.w.w.w.w.w.w.w.j k k k k k k k                       ",
"                    k k k k k k k k w.w.w.w.w.w.w.w.w.w.w.w.w.w.w.w.w.w.w.w.w.w.w.w.w.w.w.w.w.j k k k k k F l                   ",
"                  S l l k k k k k w.w.w.w.w.w.w.w.w.w.w.w.w.w.w.w.w.w.w.w.w.w.w.w.w.w.w.w.w.w.w.k k k k k k k k                 ",
"              h   S   k k k k / w.w.w.w.w.w.w.w.w.w.w.w.w.w.w.w.w.w.w.w.w.w.w.w.w.w.w.w.w.w.w.w.w.j k k k k k   k k             ",
"                k k k k k k *.w.w.w.w.w.w.w.w.w.w.w.w.w.w.w.w.w.w.w.w.w.w.w.w.w.w.w.w.w.w.w.w.w.w.w.j k k k k k k k             ",
"                  k k k l H w.a w.w.w.w.w.w.w.w.w.w.w.w.w.w.w.w.w.w.w.w.w.w.w.w.w.w.w.w.w.w.w.w.w.w.w.j k k k k l               ",
"              j k k k k k w.;.p p P w.w.w.w.w.w.w.w.w.w.w.w.w.w.w.w.w.w.w.w.w.w.w.w.w.w.w.w.w.w.w.w.w.w.k k k k k k             ",
"              S k k k k w.w.e.p s w.w.w.w.w.w.w.w.w.w.> > > > 8.w.w.w.w.w.w.t.w.w.w.w.w.w.w.w.w.w.w.w.w.w.k k k k   k           ",
"          k     k k k w.w.w.y.y.` w.w.w.w.w.w.w.w.r.> > ~ Z K E > > > - > > ; > > > w.w.w.w.w.w.w.w.w.w.w.t.k k k k k k         ",
"            S l k k j w.w.w.w.w.w.w.w.w.w.w.w.w.> > > 3 ~ ~ ~ ~ ) Q ~ ~ K > > > 7 > q : w.w.w.w.w.w.w.w.w.w.k k k k k k k       ",
"          k k k k k w.w.w.w.w.w.w.w.w.w.w.~ : 7 ~ ; / w ~ ~ ~ M W ~ ~ ~ ~ Q > > ~ A L ~ : w.w.w.w.w.w.w.w.w.w.k k k k k         ",
"          k k k k j w.w.w.w.w.w.w.w.w.- - ; > ~ ~ > _ ~ Q > / f - ~ ~ ~ ~ K > > N E ~ ~ W < w.w.w.w.w.w.w.w.w.k k k k           ",
"          k k k k w.w.w.w.w.w.w.w.w.w.L ~ : : > > > > B W V ) w - / ~ ~ ~ Z > e 0 ) ~ > : : w.w.w.w.w.w.w.w.w.w.k k k k         ",
"          k k k k w.w.w.w.w.w.w.w.w.> w < ~ ~ : ; - > > ) ~ > ~ 7 ~ ~ w Q > ; w ! ~ 7 > E m w.w.w.w.w.w.w.w.w.w.k k k k         ",
"        k k k k r.w.w.w.w.w.w.w.w.w.9 M ; : ~ ~ ~ > > ~ ~ K > ~ / / - > > > N M C / C > 7 ; >.w.w.w.w.w.w.w.w.w.! k k k k       ",
"      k k k k k w.w.w.w.w.w.w.w.w.- ! ~ ; ~ ~ ~ > > > ~ ~ > > ( ~ ~ ~ ( > > > ~ Q ; C Z ! > : w.w.w.w.w.w.w.w.w.w.k k k k       ",
"    k k k k k k w.w.w.w.w.w.w.w.w.> > u ; _ ; ^ w.w.C ~ 9 N > 3 5 w > > > > Z ~ m > ! ~ > > : w.w.w.w.w.w.w.w.w.w.k k k k       ",
"    k k k k l j w.w.w.w.w.w.w.w.w.w.w.> 3.- w.w.w.. ~ - f > > > > > w.o.y > ~ 3 > J ! > > ; - w.w.w.w.w.w.w.w.w.w.l k k k D     ",
"    k k k j l 9.w.w.w.w.w.w.w.w.w.w.w.w.w.w.w.w.w.V > m : i.- > / > w.w.w.~ - ; Q > . > / ~ < w.w.w.w.w.w.w.w.w.w.g k k k       ",
"    l l k k k w.w.w.w.w.w.w.w.w.w.w.w.w.w.w.w.w.< A Z - . w.w...4 ~ > w.w./ ; Q > w.w.> ; 6 ~ ; w.w.w.w.w.w.w.w.w.w.k k k       ",
"      k k k k w.w.w.w.w.w.w.w.w.w.w.w.w.w.w.e.u.A 3 - -.w.t.w.w.> > 8 e.w.- - ; w.w.w.w.w.q.> > w.w.w.w.w.w.w.w.w.w.k k k k j   ",
"      k k k k w.w.w.w.w.w.w.w.w.w.w.w.w.w.w.- > ; > # R R R R > > > R > > > : R R R R R = > > > < - w.w.w.w.w.w.w.w.k k k       ",
"k k k k k k k w.w.w.w.w.w.w.w.w.w.w.w.8 R y ; > ; R R + $ R R R R R R R @ R R R R R & * R R R R R R R ; w.w.w.w.w.w.k k k l k S ",
"k k k k k k k w.w.w.w.w.w.w.w.w.: R @ R R , R R % R R R R R R R R R R R R R R R R R R R R R R R R R , R R 7.w.w.w.w.k k k k     ",
"  j k k k k k w.w.w.w.w.w.+.t 6 O - - - 2 ..{ r - - ; * $ & 1 - - > ..0.e.w.w.w.w.w.w.w.y.r.r.@.1.0.r.w.w.w.w.w.w.w.k k k l h   ",
"    l k k k k w.w.w.w.w.w.w.w.w.w.w.w.w.w.w.w.w.w.w.w.w.w.w.w.w.w.w.w.w.w.w.w.w.w.w.w.w.w.w.w.w.w.w.w.w.w.w.w.w.w.w.k k k k     ",
"    l k k k l 3.w.w.w.w.w.w.w.w.w.w.w.w.w.w.w.w.w.w.w.w.w.w.w.w.w.w.w.w.w.w.w.w.w.w.w.w.w.w.w.w.w.w.w.w.w.w.w.w.w.g k k k k k   ",
"      k k k k k w.w.w.w.w.w.w.w.w.w.w.y. .p p p i [ 0.w.w.w.w.w.p ] w.w.w.w.w.w.w. .c p p p b [ w.w.w.w.w.w.w.w.w.k k k k k F   ",
"    k k k k k k w.w.w.w.w.w.w.w.w.w.[ p a :.w.w.[ a ] w.w.w.w.| p c w.w.w.w.w.w.| p Y w.w.$.b p w.w.w.w.w.w.w.w.w.k k k k S     ",
"  k k k k k k k w.w.w.w.w.w.w.w.w.u.i p w.w.w.w.w.U ] w.w.w.w.p p p w.w.w.w.w.[ p p w.w.w.w.w.p w.w.w.w.w.w.w.w.w.k k k l       ",
"    D k h k k k w.w.w.w.w.w.w.w.w.b p c w.w.w.w.w.3.] w.w.w.[ | p p [ w.w.w.w.p p [ w.w.w.w.w.[ w.w.w.w.w.w.w.w.j k k k k       ",
"      k   k k k k w.w.w.w.w.w.w.w.p p [ w.w.w.w.w.w.w.w.w.w.i q.' p p w.w.w.} p p r.w.w.w.w.w.w.w.w.w.w.w.w.w.w.k k k k         ",
"        l k k k k w.w.w.w.w.w.w.e.p p ] w.w.w.w.w.w.w.w.w.w.p w.2.p p #.w.w.[ p p w.w.w.w.w.w.w.w.w.w.w.w.w.w.w.k k k k k j     ",
"          k k k k k w.w.w.w.w.w.8.p p ] w.w.w.w.w.w.w.w.w.} [ w.w.p p T w.w.[ p p w.w.w.w.w.w.w.w.w.w.w.w.w.w.k k k k k k       ",
"            k k k k w.w.w.w.w.w.w.a p [ w.w.w.w.w.w.w.w.w.p p p p p p p w.w.[ p p r.w.w.w.w.w.w.w.w.w.w.w.w.w.k k k k k k       ",
"          k k k k k k w.w.w.w.w.w.p p n w.w.w.w.w.w.w.w.] v w.w.w.w.p p [ w.:.p p [ w.w.w.w.w.w.w.w.w.w.w.w.k k k k k   l l     ",
"          k k k k k k w.w.w.w.w.w.| p p w.w.w.w.w.w.9.w.i [ w.w.w.w.I p p w.w.p p i w.w.w.w.w.w.9.w.w.w.w.<.k k k k l           ",
"            l l k k k k w.w.w.w.w.w.p p p y.w.w.w.[ p t.p w.w.w.w.w.o.p p 4.w.] p p } w.w.w.w.| [ w.w.w.w.k k k k k k           ",
"              S k k k k l w.w.w.w.w.w.a p p p a p ] :.v Y ] w.w.w.e.] p p i O.w.] p p p i i p [ w.w.w.w.k k k k k S k           ",
"            z   k k k k k k w.w.w.w.w.w.,.[ [ [ w.w.$.$.$.$.w.w.w.$.$.$.$.$.$.w.w.w.[ [ } [ w.w.w.w.w.k k k k k k k             ",
"                    k k k k g w.w.w.w.w.w.w.w.w.w.w.w.w.w.w.w.w.w.w.w.w.w.w.w.w.w.w.w.w.w.w.w.w.w.w.k k k k k k l k k           ",
"                    l k k k k k w.w.w.w.w.w.w.w.w.w.w.w.w.w.w.w.w.w.w.w.w.w.w.w.w.w.w.w.w.w.w.w.w.k k k k k   k                 ",
"                        k k k k k w.w.w.w.w.w.w.w.w.w.w.w.w.w.w.w.w.w.w.w.w.w.w.w.w.w.w.w.w.w.w.k k k k k k k                   ",
"                          k k k k k w.w.w.w.w.w.w.w.w.w.w.w.w.w.w.w.w.w.w.w.w.w.w.w.w.w.w.w.e.k k k k k k k l                   ",
"                          k k k k k k k w.w.w.w.w.w.w.w.w.w.w.w.w.w.w.w.w.w.w.w.w.w.w.w.w.k k k k k k S k k                     ",
"                            k k k k k k k g w.w.w.w.w.w.w.w.w.w.w.w.w.w.w.w.w.w.w.w.w.k k k k k k k l     S                     ",
"                                k k k k k k k k t.w.w.w.w.w.w.w.w.w.w.w.w.w.w.w.u.k k k k k k k k                               ",
"                                  l k k k k k k k k j S r.w.w.w.w.w.w.w.t.j k k k k k k k k k k                                 ",
"                                  k k k k k k k k k k k k k k k k l k k k k k k k k k k k                                       ",
"                                  k k k k k k k k k k k k k k k k k k k k k k k k k k S     k                                   ",
"                                          l   k k k k k k k k k k k k k k k k l k     D                                         ",
"                                              k D k k k k k k l k k k k k k k   d                                               ",
"                                            k k   S z z   k k k         k k   k l                                               ",
"                                            l             k                                                                     ",
"                                                                                                                                "
};
