/* XPM */
static char *_1f8cb392aa240c09a48b1661342ef0d[] = {
/* columns rows colors chars-per-pixel */
"32 32 121 2 ",
"   c None",
".  c #3E5830",
"X  c #3A5C31",
"o  c #2D6435",
"O  c #226C38",
"+  c #494B29",
"@  c #554125",
"#  c #554225",
"$  c #554226",
"%  c #574327",
"&  c #574427",
"*  c #5A4327",
"=  c #5B4327",
"-  c #594427",
";  c #5A4527",
":  c #584528",
">  c #594528",
",  c #594529",
"<  c #524929",
"1  c #5D482A",
"2  c #5F482B",
"3  c #5E492B",
"4  c #614A2C",
"5  c #634D2F",
"6  c #7D5D3A",
"7  c #6D5C43",
"8  c #73634B",
"9  c #B71033",
"0  c #B71234",
"q  c #B3213E",
"w  c #82613E",
"e  c #9A6336",
"r  c #AE6B37",
"t  c #A16838",
"y  c #A96D3A",
"u  c #AD6D38",
"i  c #AE6E38",
"p  c #AE6E39",
"a  c #AE6F3A",
"s  c #AE6F3D",
"d  c #AE703B",
"f  c #AF713D",
"g  c #B0713D",
"h  c #B0733D",
"j  c #B2723D",
"k  c #B2733D",
"l  c #B0713E",
"z  c #B1723E",
"x  c #B2743D",
"c  c #B4753E",
"v  c #B4753F",
"b  c #B7773F",
"n  c #B22542",
"m  c #886642",
"M  c #8B6844",
"N  c #8B6944",
"B  c #946D48",
"V  c #957049",
"C  c #9A714B",
"Z  c #9B734C",
"A  c #A5774F",
"S  c #B57240",
"D  c #BA7741",
"F  c #A47950",
"G  c #A57A52",
"H  c #AA7D53",
"J  c #AB7E54",
"K  c #9E737B",
"L  c #9D787D",
"P  c #A2666F",
"I  c #008542",
"U  c #008642",
"Y  c #008743",
"T  c #AE8057",
"R  c #B08258",
"E  c #B28258",
"W  c #B6855A",
"Q  c #B7855B",
"!  c #B8875B",
"~  c #B9875C",
"^  c #BA875D",
"/  c #BC885C",
"(  c #BC895D",
")  c #BD8A5E",
"_  c #BE8A5E",
"`  c #BE8B5F",
"'  c #948A79",
"]  c #C29672",
"[  c #C29A77",
"{  c #9C7D81",
"}  c #9B8586",
"|  c #968B8B",
" . c #978C8C",
".. c #978E8E",
"X. c #998889",
"o. c #998C8C",
"O. c #988D8D",
"+. c #988E8E",
"@. c #97908F",
"#. c #A59C9C",
"$. c #A89F9F",
"%. c #B0AAAA",
"&. c #CCAE91",
"*. c #D5BEAB",
"=. c #D6BEAC",
"-. c #C1BCBC",
";. c #C5BFBF",
":. c #CCC8C8",
">. c #CEC8C8",
",. c #CFCBCB",
"<. c #EBE9E8",
"1. c #ECECEC",
"2. c #ECEDED",
"3. c gray93",
"4. c #EDEEEE",
"5. c #EDEEEF",
"6. c #EEEEEE",
"7. c #EEEFEE",
"8. c #EEF0EF",
"9. c #EDEEF0",
"0. c #F2F2F4",
/* pixels */
"                      v     f       e                           ",
"                    f f f f f f f f f v   v                     ",
"                f f f f f f f f f f f f f f f k                 ",
"              s f f f f a 1.1.1.1.2.3.3.f f f f k               ",
"              f f f 1.1.1.1.1.1.1.1.1.1.1.1.f f f f f           ",
"          f f f f 1.1.1.1.1.1.1.1.1.1.1.1.1.1.1.f f f f         ",
"          f f &.1.1.1.1.1.1.1.1.1.1.1.1.1.1.1.1.3.f f f f       ",
"        f f r 3.1.1.1.1.1.1.1.1.1.1.1.1.1.1.1.1.1.1.f f         ",
"        f f 1.9 3.1.1.1.3.: B 2 1.3.: : 0.1.1.1.1.1.1.f f f     ",
"      f f 1.1.1.2.2.1.@ B ~ ) ) ) ) w : ) W 1.1.1.1.1.f f f     ",
"    f f f 1.1.1.2.3.~ : : Z J G ~ ) ) : M M : 1.1.1.1.1.f f     ",
"    f f 1.1.1.1.1.2 2 ) ) % ` ) ) 6 : / C : ) 1.1.1.1.1.f f     ",
"  f f f 3.1.1.1.A ; @ : 3.H 4 W ) 5 : W G R ; 3.1.1.1.1.d f f   ",
"  f f f 1.1.1.1.1.8.1.1.2.& : ; : 3.: m J % R 8 1.1.1.1.3.f     ",
"    f f 1.1.1.1.1.1.1.3.) : 3.1.: 3.% : 1.1.: : 1.1.1.1.3.f f   ",
"k t f a 1.1.1.1.1.1.' & & U U O U @ : U U U 7 : ; 1.1.1.1.f f   ",
"    f f 1.1.1.+ I I U U I U U U U Y X % = + Y Y Y o < 1.1.f f   ",
"  f f f 1.1.1.1.1.1.1.1.1.1.1.1.1.1.1.1.1.1.8.2.1.2.1.1.1.f f   ",
"  y f f 1.1.1.1.1.$.0 o.9 1.1.1.0 1.1.1.+.9 P 0 1.1.1.1.9.f f   ",
"  f f f 1.1.1.1.1.0 1.1.1.1.1.q 0 1.1.-.0 1.1.:.1.1.1.1.f f k   ",
"    f f =.1.1.1.K 0 1.1.1.1.1...0 @.1.0 L 1.1.1.1.1.1.1.f f D   ",
"    x f f 1.1.1.n 0 1.1.1.1.%.| o.0 1.0 { 1.1.1.1.1.1.] f f     ",
"      f s [ 1.1.#.0 1.1.3.2.9 1.1.0 3.X.0 1.1.1.1.1.3.f f f     ",
"      k k s 1.1.1.0 0 ;.} 3.,.1.1.+.0 3.0 0 :.0 1.1.f f f       ",
"      k   f f 3.1.1.1.1.1.1.1.1.1.1.1.1.1.1.1.1.1.f f f f       ",
"            f f 1.1.1.1.1.1.1.1.1.1.1.1.1.1.1.1.f f f           ",
"            f f f =.1.1.1.1.1.1.1.1.1.1.1.1.3.f f k s           ",
"              f f f a 1.1.1.1.1.1.1.1.1.1.f f f f j             ",
"                  f f f f f f a a f f f f f f                   ",
"                  f   f f f f f f f f f f                       ",
"                      f f f f f   k f k s                       ",
"                            f                                   "
};
