/* XPM */
static char *bd391b9295304adaa31436bf5d83ec65[] = {
/* columns rows colors chars-per-pixel */
"16 16 30 1 ",
"  c None",
". c #523E1F",
"X c #564427",
"o c #574427",
"O c #584527",
"+ c #584528",
"@ c #664F30",
"# c #B80F32",
"$ c #B71133",
"% c #B71234",
"& c #AC6A32",
"* c #AF713D",
"= c #B0723F",
"- c #B3733E",
"; c #B4753F",
": c #B4783D",
"> c #B47540",
", c #9C7B7F",
"< c #A16B76",
"1 c #BA885E",
"2 c #BD8A5E",
"3 c #BE8B5F",
"4 c #978B8B",
"5 c #9D9292",
"6 c #9F9595",
"7 c #BDB7AE",
"8 c #C7A182",
"9 c #E2D8D0",
"0 c #ECECEC",
"q c gray93",
/* pixels */
"     *- * :     ",
"    ***&1***    ",
"   **0000009*   ",
"  *8000000000*  ",
"  *000+2o++00-* ",
" *000O+X2+3+00* ",
";*000++++@3+00* ",
" *0000+.+++700* ",
"**000000000000* ",
"**0050%040<000* ",
" *00%00%%00000* ",
" >-0#06000,00** ",
"  **00000000*** ",
"   **000000**   ",
"    *******     ",
"       *        "
};
